M48
; DRILL file {KiCad (5.1.6)-1} date 09/08/20 14:04:30
; FORMAT={-:-/ absolute / inch / decimal}
; #@! TF.CreationDate,2020-09-08T14:04:30-05:00
; #@! TF.GenerationSoftware,Kicad,Pcbnew,(5.1.6)-1
FMAT,2
INCH
T1C0.0315
T2C0.0320
T3C0.0350
T4C0.0393
T5C0.0400
T6C0.0500
T7C0.1300
%
G90
G05
T1
X3.565Y-3.545
X3.565Y-3.645
X4.44Y-3.52
X4.44Y-3.62
X4.44Y-3.195
X4.44Y-3.295
X4.44Y-2.945
X4.44Y-3.045
T2
X3.215Y-4.345
X3.215Y-4.445
X2.515Y-4.645
X2.515Y-4.945
X5.8Y-5.6
X6.1Y-5.6
X3.565Y-4.345
X3.565Y-4.445
X5.65Y-4.55
X5.95Y-4.55
X4.615Y-4.645
X4.615Y-4.945
X3.79Y-6.37
X3.79Y-6.47
X3.79Y-6.57
X3.315Y-3.12
X3.315Y-3.22
X5.65Y-4.95
X5.95Y-4.95
X5.8Y-3.1
X6.1Y-3.1
X2.865Y-4.645
X2.865Y-4.945
X5.8Y-6.0
X6.1Y-6.0
X3.865Y-2.945
X3.865Y-3.045
X3.865Y-3.145
X3.865Y-3.245
X3.865Y-3.345
X3.865Y-3.445
X3.865Y-3.545
X3.865Y-3.645
X4.165Y-2.945
X4.165Y-3.045
X4.165Y-3.145
X4.165Y-3.245
X4.165Y-3.345
X4.165Y-3.445
X4.165Y-3.545
X4.165Y-3.645
X3.915Y-4.345
X3.915Y-4.445
X2.865Y-4.345
X2.865Y-4.445
X5.65Y-5.8
X5.95Y-5.8
X5.8Y-5.15
X6.1Y-5.15
X4.615Y-4.345
X4.615Y-4.445
X5.65Y-4.1
X5.95Y-4.1
X3.915Y-4.645
X3.915Y-4.945
X3.315Y-3.42
X3.315Y-3.82
X5.6Y-3.3
X5.9Y-3.3
X4.265Y-4.645
X4.265Y-4.945
X5.8Y-4.75
X6.1Y-4.75
X3.215Y-4.645
X3.215Y-4.945
X5.6Y-2.9
X5.9Y-2.9
X5.8Y-4.3
X6.1Y-4.3
X2.515Y-4.345
X2.515Y-4.445
X5.65Y-5.4
X5.95Y-5.4
X5.8Y-3.895
X6.1Y-3.895
X3.565Y-4.645
X3.565Y-4.945
X4.265Y-4.345
X4.265Y-4.445
X3.965Y-3.92
X4.065Y-3.92
X4.965Y-4.345
X4.965Y-4.445
X5.64Y-3.695
X5.94Y-3.695
X5.8Y-3.5
X6.1Y-3.5
X4.965Y-4.645
X4.965Y-4.945
T3
X3.365Y-5.545
X3.465Y-5.545
X3.565Y-5.545
X3.665Y-5.545
X3.765Y-5.545
X3.865Y-5.545
X3.965Y-5.545
X4.065Y-5.545
X3.99Y-7.195
X4.09Y-7.195
X4.19Y-7.195
X4.29Y-7.195
X4.39Y-7.195
X4.49Y-7.195
X4.59Y-7.195
X4.69Y-7.195
X4.79Y-7.195
X4.89Y-7.195
X4.99Y-7.195
X5.09Y-7.195
X5.19Y-7.195
X5.29Y-7.195
X6.49Y-6.47
X6.49Y-6.57
X6.49Y-6.67
X6.49Y-6.77
X6.49Y-6.87
X6.49Y-6.97
X6.49Y-7.07
X6.49Y-7.17
X3.09Y-6.545
X3.19Y-6.545
X3.29Y-6.545
X5.3Y-3.7
X5.3Y-3.8
X5.3Y-3.9
X5.3Y-4.0
X5.3Y-4.1
X5.3Y-4.2
X5.3Y-4.3
X5.3Y-4.4
X6.09Y-6.47
X6.09Y-6.57
X6.09Y-6.67
X6.09Y-6.77
X6.09Y-6.87
X6.09Y-6.97
X6.09Y-7.07
X6.09Y-7.17
X3.065Y-3.47
X3.065Y-3.57
X4.29Y-6.795
X4.39Y-6.795
X4.49Y-6.795
X4.59Y-6.795
X4.69Y-6.795
X4.79Y-6.795
X4.89Y-6.795
X4.99Y-6.795
X5.09Y-6.795
X5.19Y-6.795
X5.29Y-6.795
X2.715Y-2.96
X2.815Y-2.96
X2.915Y-2.96
X2.74Y-3.195
X2.84Y-3.195
X2.94Y-3.195
X3.09Y-6.545
X3.19Y-6.545
X3.29Y-6.545
T4
X6.2942Y-5.8
X6.2942Y-5.977
X6.55Y-5.8
X6.55Y-5.977
X6.2871Y-4.9565
X6.2871Y-5.1335
X6.5429Y-4.9565
X6.5429Y-5.1335
X6.3235Y-4.55
X6.3235Y-4.727
X6.5793Y-4.55
X6.5793Y-4.727
X6.3221Y-4.1115
X6.3221Y-4.2885
X6.5779Y-4.1115
X6.5779Y-4.2885
X6.3221Y-3.7115
X6.3221Y-3.8885
X6.5779Y-3.7115
X6.5779Y-3.8885
X6.3121Y-3.3065
X6.3121Y-3.4835
X6.5679Y-3.3065
X6.5679Y-3.4835
X6.3221Y-2.9115
X6.3221Y-3.0885
X6.5779Y-2.9115
X6.5779Y-3.0885
X6.2871Y-5.4065
X6.2871Y-5.5835
X6.5429Y-5.4065
X6.5429Y-5.5835
T5
X4.065Y-5.545
X3.99Y-7.195
X6.49Y-7.17
X3.09Y-6.545
X5.3Y-4.4
X6.09Y-7.17
X3.065Y-3.57
X4.29Y-6.795
X2.715Y-2.96
X2.74Y-3.195
X3.799Y-2.495
X3.853Y-2.395
X3.907Y-2.495
X3.961Y-2.395
X4.015Y-2.495
X4.069Y-2.395
X4.123Y-2.495
X4.177Y-2.395
X4.231Y-2.495
X3.09Y-6.545
T6
X3.365Y-7.145
X3.465Y-6.745
X3.565Y-7.145
X2.715Y-7.145
X2.815Y-6.745
X2.915Y-7.145
X4.14Y-6.295
X4.54Y-6.195
X4.54Y-6.395
T7
X3.522Y-2.445
X4.508Y-2.445
T0
M30
